<svg xmlns="http://www.w3.org/2000/svg" viewBox="0 0 512 512" role="img" aria-labelledby="title desc">
  <title id="title">File Split Packer</title>
  <desc id="desc">文件分片压缩与合并解压工具图标</desc>
  
  <defs>
    <!-- 主背景渐变 - 深邃的紫蓝色调 -->
    <linearGradient id="bgGrad" x1="0%" y1="0%" x2="100%" y2="100%">
      <stop offset="0%" stop-color="#312E81"/>
      <stop offset="50%" stop-color="#4338CA"/>
      <stop offset="100%" stop-color="#6366F1"/>
    </linearGradient>
    
    <!-- 文件渐变 -->
    <linearGradient id="fileGrad" x1="0%" y1="0%" x2="100%" y2="100%">
      <stop offset="0%" stop-color="#F8FAFC"/>
      <stop offset="100%" stop-color="#E2E8F0"/>
    </linearGradient>
    
    <!-- 分片压缩包渐变 - 绿色 -->
    <linearGradient id="zipGrad1" x1="0%" y1="0%" x2="100%" y2="100%">
      <stop offset="0%" stop-color="#34D399"/>
      <stop offset="100%" stop-color="#10B981"/>
    </linearGradient>
    
    <!-- 分片压缩包渐变 - 橙色 -->
    <linearGradient id="zipGrad2" x1="0%" y1="0%" x2="100%" y2="100%">
      <stop offset="0%" stop-color="#FBBF24"/>
      <stop offset="100%" stop-color="#F59E0B"/>
    </linearGradient>
    
    <!-- 分片压缩包渐变 - 粉红 -->
    <linearGradient id="zipGrad3" x1="0%" y1="0%" x2="100%" y2="100%">
      <stop offset="0%" stop-color="#F472B6"/>
      <stop offset="100%" stop-color="#EC4899"/>
    </linearGradient>
    
    <!-- 箭头渐变 -->
    <linearGradient id="arrowGrad" x1="0%" y1="0%" x2="100%" y2="0%">
      <stop offset="0%" stop-color="#FBBF24"/>
      <stop offset="100%" stop-color="#F59E0B"/>
    </linearGradient>
    
    <!-- 发光效果 -->
    <filter id="glow" x="-50%" y="-50%" width="200%" height="200%">
      <feGaussianBlur stdDeviation="6" result="coloredBlur"/>
      <feMerge>
        <feMergeNode in="coloredBlur"/>
        <feMergeNode in="SourceGraphic"/>
      </feMerge>
    </filter>
    
    <!-- 阴影 -->
    <filter id="dropShadow" x="-20%" y="-20%" width="140%" height="140%">
      <feDropShadow dx="0" dy="4" stdDeviation="6" flood-color="#000" flood-opacity="0.3"/>
    </filter>
    
    <filter id="softShadow" x="-20%" y="-20%" width="140%" height="140%">
      <feDropShadow dx="0" dy="2" stdDeviation="4" flood-color="#000" flood-opacity="0.2"/>
    </filter>
  </defs>
  
  <!-- 圆角矩形背景 -->
  <rect x="20" y="20" width="472" height="472" rx="80" ry="80" fill="url(#bgGrad)"/>
  
  <!-- 背景装饰 - 微妙的网格线 -->
  <g opacity="0.08" stroke="#FFFFFF" stroke-width="1">
    <line x1="20" y1="170" x2="492" y2="170"/>
    <line x1="20" y1="256" x2="492" y2="256"/>
    <line x1="20" y1="342" x2="492" y2="342"/>
    <line x1="170" y1="20" x2="170" y2="492"/>
    <line x1="256" y1="20" x2="256" y2="492"/>
    <line x1="342" y1="20" x2="342" y2="492"/>
  </g>
  
  <!-- ==================== 左侧：完整大文件 ==================== -->
  <g filter="url(#dropShadow)">
    <!-- 文件主体 -->
    <path d="M72 100 L72 412 L188 412 L188 148 L140 100 Z" 
          fill="url(#fileGrad)" 
          stroke="#94A3B8" 
          stroke-width="2"/>
    <!-- 文件折角 -->
    <path d="M140 100 L140 148 L188 148" fill="#CBD5E1" stroke="#94A3B8" stroke-width="2"/>
    
    <!-- 文件内容横线 - 代表数据 -->
    <g stroke="#64748B" stroke-width="8" stroke-linecap="round" opacity="0.7">
      <line x1="92" y1="180" x2="168" y2="180"/>
      <line x1="92" y1="212" x2="158" y2="212"/>
      <line x1="92" y1="244" x2="168" y2="244"/>
      <line x1="92" y1="276" x2="148" y2="276"/>
      <line x1="92" y1="308" x2="168" y2="308"/>
      <line x1="92" y1="340" x2="138" y2="340"/>
      <line x1="92" y1="372" x2="168" y2="372"/>
    </g>
    
    <!-- 分割虚线 (表示将被切分) -->
    <line x1="72" y1="233" x2="188" y2="233" stroke="#EF4444" stroke-width="3" stroke-dasharray="8,4" opacity="0.8"/>
    <line x1="72" y1="310" x2="188" y2="310" stroke="#EF4444" stroke-width="3" stroke-dasharray="8,4" opacity="0.8"/>
  </g>
  
  <!-- ==================== 中间：双向循环箭头 ==================== -->
  <g filter="url(#glow)">
    <!-- 上方箭头 (向右 - 分割压缩) -->
    <path d="M208 185 
             C 240 185, 260 165, 290 165
             L 290 150 
             L 320 177.5 
             L 290 205 
             L 290 190
             C 265 190, 250 205, 220 205
             Z" 
          fill="url(#arrowGrad)" 
          stroke="#FFFFFF" 
          stroke-width="2"
          opacity="0.95"/>
    
    <!-- 下方箭头 (向左 - 解压合并) -->
    <path d="M320 325 
             C 288 325, 268 345, 238 345
             L 238 360 
             L 208 332.5 
             L 238 305 
             L 238 320
             C 263 320, 278 305, 308 305
             Z" 
          fill="url(#arrowGrad)" 
          stroke="#FFFFFF" 
          stroke-width="2"
          opacity="0.95"/>
    
    <!-- 中间连接的循环圆弧 -->
    <path d="M264 205 C 264 240, 264 270, 264 305" 
          fill="none" 
          stroke="#FBBF24" 
          stroke-width="4" 
          stroke-dasharray="6,4"
          opacity="0.6"/>
  </g>
  
  <!-- ==================== 右侧：三个压缩分片 ==================== -->
  
  <!-- 分片 1 (绿色 - 顶部) -->
  <g filter="url(#softShadow)">
    <rect x="340" y="80" width="110" height="90" rx="12" fill="url(#zipGrad1)"/>
    <!-- 拉链效果 -->
    <rect x="387" y="80" width="16" height="90" fill="#047857" opacity="0.25"/>
    <g fill="#FFFFFF">
      <rect x="391" y="88" width="8" height="8" rx="2"/>
      <rect x="391" y="104" width="8" height="8" rx="2"/>
      <rect x="391" y="120" width="8" height="8" rx="2"/>
      <rect x="391" y="136" width="8" height="8" rx="2"/>
      <rect x="391" y="152" width="8" height="8" rx="2"/>
    </g>
    <!-- 标签 -->
    <text x="395" y="185" font-family="system-ui, -apple-system, sans-serif" font-size="16" font-weight="700" fill="#FFFFFF" text-anchor="middle">.zip.001</text>
  </g>
  
  <!-- 分片 2 (橙色 - 中间) -->
  <g filter="url(#softShadow)">
    <rect x="340" y="211" width="110" height="90" rx="12" fill="url(#zipGrad2)"/>
    <!-- 拉链效果 -->
    <rect x="387" y="211" width="16" height="90" fill="#B45309" opacity="0.25"/>
    <g fill="#FFFFFF">
      <rect x="391" y="219" width="8" height="8" rx="2"/>
      <rect x="391" y="235" width="8" height="8" rx="2"/>
      <rect x="391" y="251" width="8" height="8" rx="2"/>
      <rect x="391" y="267" width="8" height="8" rx="2"/>
      <rect x="391" y="283" width="8" height="8" rx="2"/>
    </g>
    <!-- 标签 -->
    <text x="395" y="316" font-family="system-ui, -apple-system, sans-serif" font-size="16" font-weight="700" fill="#FFFFFF" text-anchor="middle">.zip.002</text>
  </g>
  
  <!-- 分片 3 (粉红 - 底部) -->
  <g filter="url(#softShadow)">
    <rect x="340" y="342" width="110" height="90" rx="12" fill="url(#zipGrad3)"/>
    <!-- 拉链效果 -->
    <rect x="387" y="342" width="16" height="90" fill="#9D174D" opacity="0.25"/>
    <g fill="#FFFFFF">
      <rect x="391" y="350" width="8" height="8" rx="2"/>
      <rect x="391" y="366" width="8" height="8" rx="2"/>
      <rect x="391" y="382" width="8" height="8" rx="2"/>
      <rect x="391" y="398" width="8" height="8" rx="2"/>
      <rect x="391" y="414" width="8" height="8" rx="2"/>
    </g>
    <!-- 标签 -->
    <text x="395" y="447" font-family="system-ui, -apple-system, sans-serif" font-size="16" font-weight="700" fill="#FFFFFF" text-anchor="middle">.zip.003</text>
  </g>
  
  <!-- ==================== 连接线 (文件到分片) ==================== -->
  <g stroke="#FFFFFF" stroke-width="2" stroke-dasharray="6,4" opacity="0.4">
    <!-- 文件到分片1 -->
    <path d="M188 166 Q 264 140, 340 125" fill="none"/>
    <!-- 文件到分片2 -->
    <path d="M188 271 Q 264 271, 340 256" fill="none"/>
    <!-- 文件到分片3 -->
    <path d="M188 376 Q 264 400, 340 387" fill="none"/>
  </g>
</svg>